:SAMPLES-PER-SECOND 30
:FULLY-SPECIFIED
:DEGREES
673
root  62.6786 38.515 -18.6475 177.341 39.33 176.915
RightUpLeg  -13.5203 -8.30895 -13.7323
RightLeg  13.4275 3.60502 0.408122
RightFoot  0.127009 -1.28601 12.7282
RightToes  -2.32831e-009 0 -3.6325e-017
Spine  16.7723 2.22331 0.973151
Spine1  5.14691 4.7224 -9.41839
HEad  -57.8732 -53.5801 -9.36345
LeftShoulder1  0.00570691 3.48933 -27.3434
LeftArm  -5.93961 9.5588 -37.4425
LeftForeArm  50.4772 -72.2014 -30.2274
LeftHand  -0.0283812 5.85162 0.242531
RightShoulder  -1.28929 -6.87397 31.7497
RightArm  3.64738 -6.33635 34.099
RightForeArm  36.3209 63.1065 18.8078
RightHand  -0.00538682 8.43723 -0.422142
LeftUpLeg  -14.1437 3.21422 -0.483881
LeftLeg  16.9994 -9.05232 -2.6153
LeftFoot  -0.869424 -0.217671 2.44264
LeftToes  8.91272e-011 -1.70619e-011 7.36378e-012
674
root  61.8788 38.6799 -18.7881 176.072 45.7939 176.484
RightUpLeg  -13.7518 -8.25893 -12.3668
RightLeg  18.4262 2.06487 0.639924
RightFoot  -1.56263 -0.924156 10.6972
RightToes  -2.32831e-009 0 -3.6325e-017
Spine  16.8526 2.61336 0.99176
Spine1  4.52104 5.04676 -9.39052
HEad  -56.6411 -53.7067 -13.344
LeftShoulder1  -0.0297953 3.58113 -28.7351
LeftArm  -3.61183 8.98656 -36.3282
LeftForeArm  40.9934 -65.966 -21.2589
LeftHand  -0.0276288 7.17537 0.81515
RightShoulder  -1.19604 -6.72693 30.56
RightArm  2.24691 -6.73038 35.9814
RightForeArm  34.5669 64.1653 20.0717
RightHand  -0.157955 9.1427 -1.65071
LeftUpLeg  -11.9926 4.63562 -0.725469
LeftLeg  14.4992 -4.40743 -1.2289
LeftFoot  0.0169624 -0.231977 2.33112
LeftToes  8.91272e-011 -1.70619e-011 7.36378e-012
675
root  61.1618 38.7228 -18.9249 174.379 52.0707 175.534
RightUpLeg  -13.1992 -8.30638 -11.4375
RightLeg  23.8104 3.11024 1.29601
RightFoot  -4.17359 -0.747483 11.454
RightToes  -2.32831e-009 0 -3.6325e-017
Spine  16.1122 2.96651 -0.679159
Spine1  5.05055 4.70974 -7.38217
HEad  -57.8495 -52.4299 -13.9933
LeftShoulder1  -0.34937 4.41883 -32.0384
LeftArm  -1.31434 8.07336 -34.2322
LeftForeArm  34.7247 -59.014 -15.5891
LeftHand  -0.0258162 6.02487 1.16031
RightShoulder  -0.97327 -6.31621 28.0477
RightArm  3.1977 -5.22524 38.4752
RightForeArm  33.4503 64.3358 20.419
RightHand  -0.245809 9.3968 -2.3225
LeftUpLeg  -10.4131 5.99335 -0.700319
LeftLeg  13.1695 0.376122 -0.904514
LeftFoot  0.416201 -0.258824 2.48918
LeftToes  8.91272e-011 -1.70619e-011 7.36378e-012
676
root  60.4742 38.7004 -19.0408 173.153 57.1603 174.573
RightUpLeg  -12.2226 -9.74885 -11.2934
RightLeg  28.8003 2.93084 1.50121
RightFoot  -5.68184 -0.631321 11.9254
RightToes  -2.32831e-009 0 -3.6325e-017
Spine  14.8006 2.7092 -2.39977
Spine1  5.74154 3.68191 -5.20409
HEad  -61.6128 -50.3182 -9.25342
LeftShoulder1  -0.667778 5.18441 -33.6493
LeftArm  0.364184 8.11294 -33.5333
LeftForeArm  31.3364 -51.9935 -11.8658
LeftHand  -0.0370135 6.56695 -0.178762
RightShoulder  -0.856896 -6.06713 26.8466
RightArm  3.98899 -4.22115 40.9648
RightForeArm  36.6783 66.0141 21.9104
RightHand  -0.1798 8.4907 -1.88552
LeftUpLeg  -10.1423 6.54356 -0.73648
LeftLeg  12.9265 4.83425 -0.58936
LeftFoot  0.732147 -0.316903 2.9539
LeftToes  8.91272e-011 -1.70619e-011 7.36378e-012
677
root  59.8085 38.6757 -19.1229 171.706 61.3524 173.543
RightUpLeg  -10.2302 -11.2342 -12.0289
RightLeg  32.535 0.31634 -0.0301351
RightFoot  -6.80529 -0.494845 11.2719
RightToes  -2.32831e-009 0 -3.6325e-017
Spine  14.2661 2.15697 -2.84516
Spine1  5.54434 2.79586 -4.49523
HEad  -64.2937 -49.8032 -2.83396
LeftShoulder1  -0.804565 5.52855 -33.5673
LeftArm  3.10763 8.51328 -33.8809
LeftForeArm  27.9708 -44.1883 -8.9629
LeftHand  -0.0532794 7.35754 -0.654272
RightShoulder  -0.93498 -6.2103 27.9746
RightArm  6.10452 -3.5188 41.0661
RightForeArm  37.8265 67.328 23.473
RightHand  -0.15399 8.97109 -1.63517
LeftUpLeg  -10.0396 7.16108 -0.705702
LeftLeg  12.946 8.25884 -0.449039
LeftFoot  1.21732 -0.412506 3.67712
LeftToes  8.91272e-011 -1.70619e-011 7.36378e-012
678
root  59.1923 38.6453 -19.1697 169.384 66.0042 171.183
RightUpLeg  -8.51816 -11.0185 -13.497
RightLeg  35.3616 -2.96044 -2.50223
RightFoot  -7.95708 -0.349166 10.0121
RightToes  -2.32831e-009 0 -3.6325e-017
Spine  12.6878 2.06479 -2.40983
Spine1  6.60905 2.86806 -5.01466
HEad  -66.3213 -49.6324 2.79402
LeftShoulder1  -0.776905 5.48654 -33.0307
LeftArm  6.25278 8.60349 -35.3786
LeftForeArm  25.2639 -36.4004 -6.7224
LeftHand  -0.0654243 7.27429 -1.35347
RightShoulder  -1.03859 -6.43511 28.8951
RightArm  7.42493 -3.23773 41.0151
RightForeArm  38.6097 68.1016 24.4821
RightHand  -0.0985588 9.16144 -1.18168
LeftUpLeg  -10.1233 7.75766 -0.739797
LeftLeg  12.6748 12.3388 -0.452131
LeftFoot  1.86101 -0.504642 4.2648
LeftToes  8.91272e-011 -1.70619e-011 7.36378e-012
679
root  58.5066 38.5912 -19.1049 166.082 71.3109 168.107
RightUpLeg  -7.12907 -9.0592 -14.7826
RightLeg  37.3864 -4.50969 -3.9339
RightFoot  -8.10934 -0.274047 7.70446
RightToes  -2.32831e-009 0 -3.6325e-017
Spine  12.8194 2.44791 -1.66947
Spine1  5.94816 3.37324 -5.44447
HEad  -68.8206 -48.9143 8.05167
LeftShoulder1  -0.847411 5.66777 -32.9001
LeftArm  7.95908 10.0789 -36.7603
LeftForeArm  23.3959 -31.0678 -5.47699
LeftHand  -0.0635468 6.56796 -0.855255
RightShoulder  -1.02898 -6.36837 29.3226
RightArm  8.4963 -3.93871 41.4542
RightForeArm  39.044 68.1694 24.5212
RightHand  -0.158845 8.74802 -1.68603
LeftUpLeg  -10.628 8.50339 -0.451082
LeftLeg  13.4203 16.7062 0.492062
LeftFoot  2.28011 -0.488276 3.9719
LeftToes  8.91272e-011 -1.70619e-011 7.36378e-012
